<?xml version="1.0" encoding="UTF-8"?>
<svg width="120px" height="23px" viewBox="0 0 120 23" version="1.1" xmlns="http://www.w3.org/2000/svg" xmlns:xlink="http://www.w3.org/1999/xlink">
    <!-- Generator: Sketch 61 (89581) - https://sketch.com -->
    <title>Logo/TestRail Logo dark</title>
    <desc>Created with Sketch.</desc>
    <defs>
        <polygon id="path-1" points="0 0.2606 14.14795 0.2606 14.14795 20.7656 0 20.7656"></polygon>
        <polygon id="path-3" points="0.0867 0.4386 5.956 0.4386 5.956 6.3076 0.0867 6.3076"></polygon>
    </defs>
    <g id="Logo/TestRail-Logo-dark" stroke="none" stroke-width="1" fill="none" fill-rule="evenodd">
        <g id="TestRail-Logo">
            <g id="Group-31">
                <g id="Group-3" transform="translate(0.000000, 0.607000)">
                    <mask id="mask-2" fill="white">
                        <use xlink:href="#path-1"></use>
                    </mask>
                    <g id="Clip-2"></g>
                    <path d="M14.14795,0.6416 L14.14795,1.7256 C14.14795,1.9796 14.02095,2.1066 13.76695,2.1066 L8.14295,2.1066 C8.04545,2.1066 7.99645,2.1551 7.99645,2.2531 L7.99645,20.3846 C7.99645,20.6386 7.86945,20.7656 7.61595,20.7656 L6.29795,20.7656 C6.04345,20.7656 5.91695,20.6386 5.91695,20.3846 L5.91695,2.2531 C5.91695,2.1551 5.86745,2.1066 5.77045,2.1066 L0.38045,2.1066 C0.12645,2.1066 -5e-05,1.9796 -5e-05,1.7256 L-5e-05,0.6416 C-5e-05,0.3881 0.12645,0.2606 0.38045,0.2606 L13.76695,0.2606 C14.02095,0.2606 14.14795,0.3881 14.14795,0.6416" id="Fill-1" fill="#FFFFFF" mask="url(#mask-2)"></path>
                </g>
                <path d="M16.4326,8.87945 C15.8076,9.37745 15.3976,10.04645 15.2026,10.88595 C15.0856,11.27695 15.0066,11.94045 14.9681,12.87795 C14.9681,12.97545 15.0166,13.02445 15.1146,13.02445 L22.6426,13.02445 C22.7401,13.02445 22.7891,12.97545 22.7891,12.87795 C22.7501,12.01845 22.6916,11.39395 22.6131,11.00295 C22.3986,10.12395 21.9641,9.42645 21.3101,8.90895 C20.6551,8.39145 19.8306,8.13245 18.8351,8.13245 C17.8581,8.13245 17.0576,8.38145 16.4326,8.87945 M21.3981,19.21995 C22.0321,18.83895 22.5256,18.30695 22.8771,17.62295 C22.9161,17.52545 22.9846,17.45745 23.0821,17.41795 C23.1796,17.37945 23.2771,17.38895 23.3751,17.44745 L24.2246,17.91595 C24.4591,18.05295 24.5176,18.21945 24.4006,18.41395 C23.9316,19.39045 23.2286,20.16695 22.2916,20.74295 C21.3541,21.31895 20.2406,21.60695 18.9521,21.60695 C17.5851,21.60695 16.4326,21.28495 15.4956,20.63995 C14.5581,19.99545 13.8841,19.09795 13.4741,17.94545 C13.1031,16.96945 12.9176,15.62145 12.9176,13.90295 C12.9176,13.06345 12.9321,12.39445 12.9616,11.89645 C12.9906,11.39845 13.0641,10.93495 13.1811,10.50495 C13.5131,9.23595 14.1816,8.22045 15.1881,7.45845 C16.1931,6.69745 17.4091,6.31645 18.8351,6.31645 C20.5336,6.31645 21.8666,6.75545 22.8331,7.63445 C23.7996,8.51345 24.4196,9.75345 24.6931,11.35445 C24.8106,11.97995 24.8691,12.95595 24.8691,14.28395 C24.8691,14.53745 24.7416,14.66445 24.4881,14.66445 L15.1146,14.66445 C15.0166,14.66445 14.9681,14.71345 14.9681,14.81095 C14.9681,15.78745 15.0266,16.50045 15.1441,16.94945 C15.3586,17.82795 15.8126,18.52695 16.5056,19.04395 C17.1986,19.56145 18.0731,19.81995 19.1281,19.81995 C20.0061,19.80095 20.7631,19.60045 21.3981,19.21995" id="Fill-4" fill="#FFFFFF"></path>
                <path d="M29.7754,20.99175 C28.9259,20.64025 28.2714,20.17125 27.8124,19.58575 C27.3534,19.00025 27.1239,18.34575 27.1239,17.62325 L27.1239,17.35925 C27.1239,17.10625 27.2509,16.97875 27.5049,16.97875 L28.7649,16.97875 C28.8819,16.97875 28.9739,17.00325 29.0429,17.05175 C29.1114,17.10125 29.1454,17.16475 29.1454,17.24225 L29.1454,17.50575 C29.1454,18.15025 29.4769,18.71175 30.1414,19.19025 C30.8054,19.66875 31.6449,19.90775 32.6609,19.90775 C33.6759,19.90775 34.4959,19.67875 35.1209,19.21975 C35.7459,18.76075 36.0584,18.17975 36.0584,17.47675 C36.0584,16.98875 35.9019,16.58825 35.5899,16.27575 C35.2774,15.96325 34.8964,15.71925 34.4474,15.54375 C33.9979,15.36775 33.3244,15.14375 32.4264,14.86975 C31.3324,14.55775 30.4339,14.24525 29.7314,13.93225 C29.0284,13.62025 28.4319,13.18575 27.9444,12.62875 C27.4559,12.07225 27.2119,11.36475 27.2119,10.50475 C27.2119,9.25525 27.7049,8.25975 28.6914,7.51725 C29.6774,6.77525 30.9714,6.40425 32.5729,6.40425 C33.6464,6.40425 34.5984,6.58025 35.4289,6.93125 C36.2584,7.28275 36.8979,7.76625 37.3474,8.38125 C37.7964,8.99675 38.0209,9.68525 38.0209,10.44625 C38.0209,10.70075 37.8939,10.82725 37.6399,10.82725 L36.4394,10.82725 C36.1849,10.82725 36.0584,10.75925 36.0584,10.62225 L36.0584,10.44625 C36.0584,9.78275 35.7409,9.22625 35.1064,8.77675 C34.4719,8.32775 33.6174,8.10325 32.5434,8.10325 C31.5474,8.10325 30.7464,8.30375 30.1414,8.70375 C29.5359,9.10425 29.2334,9.65575 29.2334,10.35825 C29.2334,11.02275 29.5209,11.53025 30.0979,11.88175 C30.6734,12.23325 31.5769,12.58525 32.8069,12.93675 C33.9394,13.24925 34.8574,13.55125 35.5604,13.84425 C36.2639,14.13725 36.8689,14.56675 37.3764,15.13325 C37.8844,15.69975 38.1384,16.43225 38.1384,17.33025 C38.1384,18.59975 37.6449,19.61525 36.6594,20.37675 C35.6729,21.13825 34.3494,21.51925 32.6899,21.51925 C31.5959,21.51925 30.6244,21.34325 29.7754,20.99175" id="Fill-6" fill="#FFFFFF"></path>
                <path d="M47.01365,8.27885 L43.82065,8.27885 C43.72315,8.27885 43.67415,8.32785 43.67415,8.42535 L43.67415,16.97835 C43.67415,17.91585 43.88415,18.57535 44.30415,18.95585 C44.72415,19.33685 45.38315,19.52735 46.28165,19.52735 L46.92565,19.52735 C47.17965,19.52735 47.30665,19.65435 47.30665,19.90785 L47.30665,20.93335 C47.30665,21.18685 47.17965,21.32435 46.92565,21.34335 L45.93015,21.34335 C44.52415,21.34335 43.45965,21.07985 42.73715,20.55235 C42.01465,20.02485 41.65315,19.04885 41.65315,17.62285 L41.65315,8.42535 C41.65315,8.32785 41.60465,8.27885 41.50665,8.27885 L39.83715,8.27885 C39.58315,8.27885 39.45665,8.15185 39.45665,7.89785 L39.45665,6.93135 C39.45665,6.67785 39.58315,6.55085 39.83715,6.55085 L41.50665,6.55085 C41.60465,6.55085 41.65315,6.50185 41.65315,6.40435 L41.65315,3.12335 C41.65315,2.86985 41.78015,2.74285 42.03415,2.74285 L43.29365,2.74285 C43.54715,2.74285 43.67415,2.86985 43.67415,3.12335 L43.67415,6.40435 C43.67415,6.50185 43.72315,6.55085 43.82065,6.55085 L47.01365,6.55085 C47.26765,6.55085 47.39465,6.67785 47.39465,6.93135 L47.39465,7.89785 C47.39465,8.15185 47.26765,8.27885 47.01365,8.27885" id="Fill-8" fill="#FFFFFF"></path>
                <path d="M53.4287,3.94345 L53.4287,9.71445 C53.4287,9.83145 53.4872,9.89045 53.6047,9.89045 L57.9692,9.89045 C58.9067,9.89045 59.6632,9.61195 60.2392,9.05545 C60.8147,8.49845 61.1037,7.77095 61.1037,6.87245 C61.1037,5.95495 60.8147,5.20795 60.2392,4.63195 C59.6632,4.05645 58.9067,3.76745 57.9692,3.76745 L53.6047,3.76745 C53.4872,3.76745 53.4287,3.82645 53.4287,3.94345 M61.0742,21.02095 L57.2367,12.64345 C57.2172,12.56545 57.1487,12.52645 57.0317,12.52645 L53.6047,12.52645 C53.4872,12.52645 53.4287,12.58495 53.4287,12.70245 L53.4287,20.90395 C53.4287,21.21645 53.2727,21.37245 52.9602,21.37245 L50.4997,21.37245 C50.1872,21.37245 50.0307,21.21645 50.0307,20.90395 L50.0307,1.30745 C50.0307,0.99545 50.1872,0.83845 50.4997,0.83845 L58.4382,0.83845 C59.6287,0.83845 60.6832,1.08745 61.6017,1.58545 C62.5192,2.08345 63.2317,2.78695 63.7397,3.69445 C64.2477,4.60245 64.5017,5.64245 64.5017,6.81395 C64.5017,8.16195 64.1542,9.30895 63.4612,10.25595 C62.7682,11.20395 61.8157,11.85245 60.6057,12.20395 C60.5467,12.22395 60.5072,12.25795 60.4882,12.30695 C60.4687,12.35545 60.4787,12.39945 60.5177,12.43845 L64.5602,20.81595 L64.6187,21.05045 C64.6187,21.26595 64.4817,21.37245 64.2087,21.37245 L61.6307,21.37245 C61.3567,21.37245 61.1717,21.25545 61.0742,21.02095" id="Fill-10" fill="#FFFFFF"></path>
                <path d="M75.16355,18.15045 C75.84705,17.64245 76.18905,16.99845 76.18905,16.21745 L76.18905,14.86945 C76.18905,14.75245 76.13055,14.69395 76.01305,14.69395 L73.58205,14.69395 C72.54655,14.69395 71.72655,14.88945 71.12105,15.27995 C70.51555,15.67045 70.21355,16.22695 70.21355,16.94945 C70.21355,17.57495 70.44755,18.05795 70.91605,18.39945 C71.38455,18.74145 71.98055,18.91195 72.70305,18.91195 C73.65955,18.91195 74.48005,18.65845 75.16355,18.15045 M76.64305,6.81395 C77.59005,7.24445 78.31755,7.83495 78.82505,8.58645 C79.33305,9.33845 79.58705,10.19295 79.58705,11.14945 L79.58705,20.90395 C79.58705,21.21645 79.43005,21.37245 79.11805,21.37245 L76.65755,21.37245 C76.34455,21.37245 76.18905,21.21645 76.18905,20.90395 L76.18905,20.17145 C76.18905,20.09395 76.16955,20.04995 76.13055,20.03945 C76.09055,20.03045 76.04255,20.04495 75.98405,20.08345 C74.92905,21.09895 73.52355,21.60695 71.76555,21.60695 C70.32005,21.60695 69.13355,21.23645 68.20655,20.49395 C67.27855,19.75195 66.81555,18.64845 66.81555,17.18345 C66.81555,15.66095 67.34705,14.47395 68.41155,13.62445 C69.47605,12.77545 70.97455,12.35045 72.90805,12.35045 L76.01305,12.35045 C76.13055,12.35045 76.18905,12.29195 76.18905,12.17495 L76.18905,11.50095 C76.18905,10.73945 75.95905,10.14895 75.50055,9.72895 C75.04155,9.30895 74.36255,9.09895 73.46505,9.09895 C72.78055,9.09895 72.21505,9.22145 71.76555,9.46545 C71.31655,9.70945 71.01355,10.04645 70.85755,10.47545 C70.77905,10.74945 70.60355,10.87645 70.33055,10.85645 L67.69405,10.53445 C67.53755,10.51495 67.42055,10.47145 67.34255,10.40245 C67.26405,10.33445 67.23505,10.25145 67.25505,10.15345 C67.43055,8.98195 68.07955,8.02545 69.20255,7.28295 C70.32505,6.54095 71.71655,6.16995 73.37705,6.16995 C74.60705,6.16995 75.69505,6.38495 76.64305,6.81395" id="Fill-12" fill="#FFFFFF"></path>
                <path d="M83.18945,20.90385 L83.18945,6.87285 C83.18945,6.56035 83.34545,6.40435 83.65795,6.40435 L86.11845,6.40435 C86.43095,6.40435 86.58745,6.56035 86.58745,6.87285 L86.58745,20.90385 C86.58745,21.21635 86.43095,21.37235 86.11845,21.37235 L83.65795,21.37235 C83.34545,21.37235 83.18945,21.21635 83.18945,20.90385 M83.30645,3.92885 C82.89645,3.52885 82.69195,3.01635 82.69195,2.39135 C82.69195,1.76635 82.89645,1.25885 83.30645,0.86785 C83.71695,0.47735 84.24395,0.28185 84.88845,0.28185 C85.53295,0.28185 86.05495,0.47735 86.45545,0.86785 C86.85595,1.25885 87.05595,1.76635 87.05595,2.39135 C87.05595,3.01635 86.85595,3.52885 86.45545,3.92885 C86.05495,4.32985 85.53295,4.52935 84.88845,4.52935 C84.24395,4.52935 83.71695,4.32985 83.30645,3.92885" id="Fill-14" fill="#FFFFFF"></path>
                <path d="M90.4536,20.90385 L90.4536,1.33635 C90.4536,1.02435 90.6096,0.86785 90.9221,0.86785 L93.3831,0.86785 C93.6951,0.86785 93.8516,1.02435 93.8516,1.33635 L93.8516,20.90385 C93.8516,21.21635 93.6951,21.37235 93.3831,21.37235 L90.9221,21.37235 C90.6096,21.37235 90.4536,21.21635 90.4536,20.90385" id="Fill-16" fill="#FFFFFF"></path>
                <path d="M103.0078,21.4146 L98.9448,21.4146 C98.4458,21.4146 98.0413,21.0101 98.0413,20.5111 L98.0413,16.4481 C98.0413,15.9491 98.4458,15.5456 98.9448,15.5456 L103.0078,15.5456 C103.5068,15.5456 103.9108,15.9491 103.9108,16.4481 L103.9108,20.5111 C103.9108,21.0101 103.5068,21.4146 103.0078,21.4146" id="Fill-18" fill="#3CB850"></path>
                <path d="M110.78075,21.4146 L106.71725,21.4146 C106.21875,21.4146 105.81425,21.0101 105.81425,20.5111 L105.81425,16.4481 C105.81425,15.9491 106.21875,15.5456 106.71725,15.5456 L110.78075,15.5456 C111.27925,15.5456 111.68375,15.9491 111.68375,16.4481 L111.68375,20.5111 C111.68375,21.0101 111.27925,21.4146 110.78075,21.4146" id="Fill-20" fill="#3CB850"></path>
                <path d="M103.0078,13.64165 L98.9448,13.64165 C98.4458,13.64165 98.0413,13.23715 98.0413,12.73865 L98.0413,8.67515 C98.0413,8.17665 98.4458,7.77265 98.9448,7.77265 L103.0078,7.77265 C103.5068,7.77265 103.9108,8.17665 103.9108,8.67515 L103.9108,12.73865 C103.9108,13.23715 103.5068,13.64165 103.0078,13.64165" id="Fill-22" fill="#3CB850"></path>
                <path d="M103.0078,5.8692 L98.9448,5.8692 C98.4458,5.8692 98.0413,5.4647 98.0413,4.9662 L98.0413,0.9027 C98.0413,0.4042 98.4458,0.0002 98.9448,0.0002 L103.0078,0.0002 C103.5068,0.0002 103.9108,0.4042 103.9108,0.9027 L103.9108,4.9662 C103.9108,5.4647 103.5068,5.8692 103.0078,5.8692" id="Fill-24" fill="#3CB850"></path>
                <path d="M110.78075,13.64165 L106.71725,13.64165 C106.21875,13.64165 105.81425,13.23715 105.81425,12.73865 L105.81425,8.67515 C105.81425,8.17665 106.21875,7.77265 106.71725,7.77265 L110.78075,7.77265 C111.27925,7.77265 111.68375,8.17665 111.68375,8.67515 L111.68375,12.73865 C111.68375,13.23715 111.27925,13.64165 110.78075,13.64165" id="Fill-26" fill="#FCC200"></path>
                <g id="Group-30" transform="translate(113.500000, 15.107000)">
                    <mask id="mask-4" fill="white">
                        <use xlink:href="#path-3"></use>
                    </mask>
                    <g id="Clip-29"></g>
                    <path d="M5.0532,6.3076 L0.9897,6.3076 C0.4912,6.3076 0.0867,5.9031 0.0867,5.4041 L0.0867,1.3411 C0.0867,0.8421 0.4912,0.4386 0.9897,0.4386 L5.0532,0.4386 C5.5517,0.4386 5.9562,0.8421 5.9562,1.3411 L5.9562,5.4041 C5.9562,5.9031 5.5517,6.3076 5.0532,6.3076" id="Fill-28" fill="#E4006D" mask="url(#mask-4)"></path>
                </g>
            </g>
        </g>
    </g>
</svg>